<svg xmlns="http://www.w3.org/2000/svg" viewBox="0 0 32 32">
  <!-- Orange slice background -->
  <circle cx="16" cy="16" r="15" fill="#FF9F1C"/>
  <!-- Inner orange -->
  <circle cx="16" cy="16" r="12" fill="#FFBF69"/>
  <!-- Orange segments -->
  <g fill="#FF9F1C" opacity="0.8">
    <path d="M16 4 L16 16 L6 10 Z"/>
    <path d="M16 4 L16 16 L26 10 Z"/>
    <path d="M16 28 L16 16 L6 22 Z"/>
    <path d="M16 28 L16 16 L26 22 Z"/>
    <path d="M4 16 L16 16 L10 6 Z"/>
    <path d="M28 16 L16 16 L22 6 Z"/>
    <path d="M4 16 L16 16 L10 26 Z"/>
    <path d="M28 16 L16 16 L22 26 Z"/>
  </g>
  <!-- Center -->
  <circle cx="16" cy="16" r="3" fill="#FFF"/>
  <!-- Cookie bite taken out -->
  <circle cx="26" cy="6" r="5" fill="#0A0A0A"/>
</svg>
